# xmcd
#
# Track frame offsets:
#	150
#	15417
#	29204
#	45132
#	61598
#	77625
#	94716
#	109731
#	122676
#	141489
#	161737
#	182049
#	198909
#	213520
#	227878
#	244356
#	259193
#	273450
#
# Disc length: 3835 seconds
#
# Revision: 1
# Processed by: cddbd v1.4PL0 Copyright (c) Steve Scherf et al.
# Submitted via: EasyCDDAExtractor 5.0.7
#
DISCID=fb0ef912
DTITLE=<<compilation>> - Country Line Dancing
DYEAR=1998
DGENRE=Country
TTITLE0=Achy Breaky Heart
TTITLE1=Boot Scootin Boogie
TTITLE2=My Maria
TTITLE3=Aint Goin Down
TTITLE4=American Honky-Tonk Bar Association
TTITLE5=Standing Outside The Fire
TTITLE6=Check Yes Or No
TTITLE7=Blue
TTITLE8=Any Man Of Mine
TTITLE9=You Win My Love
TTITLE10=(If You´re Not In It For Love) I´m Outta Here
TTITLE11=Bop
TTITLE12=Summertime Blues
TTITLE13=Chattahoochie
TTITLE14=Swayin To The Music
TTITLE15=Third Rate Romance
TTITLE16=Poor, Poor Pitiful Me
TTITLE17=Get Into Reggae Cowboy
EXTD=
EXTT0=
EXTT1=
EXTT2=
EXTT3=
EXTT4=
EXTT5=
EXTT6=
EXTT7=
EXTT8=
EXTT9=
EXTT10=
EXTT11=
EXTT12=
EXTT13=
EXTT14=
EXTT15=
EXTT16=
EXTT17=
PLAYORDER=
